# xmcd
#
# Track frame offsets:
#	150
#	16157
#	32180
#	47407
#	61100
#	76897
#	89967
#	102879
#	114688
#	132164
#	148624
#
# Disc length: 2236 seconds
# Revision: 1
# Processed by: cddbd v1.5.2PL0 Copyright (c) Steve Scherf et al.
# Submitted via: dBpowerAMP V12.0
#
DISCID=8d08ba0b
DTITLE=Victoria Edwards - Authentic
DYEAR=2012
DGENRE=Country
TTITLE0=Open Doors
TTITLE1=Road Train
TTITLE2=Where's The Fire
TTITLE3=New Beginnings
TTITLE4=Here in My Heart
TTITLE5=Little Secrets
TTITLE6=The Weather Song
TTITLE7=Love The Wrong Man
TTITLE8=You Aint Never
TTITLE9=Too Much Country
TTITLE10=Never Give Up
EXTD=
EXTT0=
EXTT1=
EXTT2=
EXTT3=
EXTT4=
EXTT5=
EXTT6=
EXTT7=
EXTT8=
EXTT9=
EXTT10=
PLAYORDER=
